# xmcd
#
# Track frame offsets:
#	150
#	11902
#	25062
#	35612
#	46652
#	58957
#	71785
#	80365
#	92952
#	104675
#	115940
#	127000
#	138712
#	155530
#	170350
#	183190
#	194300
#	207552
#	217470
#	232740
#
# Disc length: 3280 seconds
#
# Revision: 1
# Processed by: cddbd v1.5.2PL0 Copyright (c) Steve Scherf et al.
# Submitted via: audiograbber 1.83.01
#
DISCID=2d0cce14
DTITLE=Roy Rogers - A Man From Duck Run and The Country Side Of
DYEAR=1999
DGENRE=Country
TTITLE0=Lovenworth
TTITLE1=If I Ever Get That Close Again
TTITLE2=I Never Picked Cotton
TTITLE3=Everything Changes
TTITLE4=Happy Anniversary
TTITLE5=Come Sundown
TTITLE6=You Brought Me Love
TTITLE7=Take Your Time
TTITLE8=Happiness
TTITLE9=Spotted Dog Named Sam
TTITLE10=Money Can't Buy Love
TTITLE11=I Washed My Face In The Morning Dew
TTITLE12=The Blizzard
TTITLE13=Down Home
TTITLE14=Okie From Muskogee
TTITLE15=The Fightin' Side Of Me
TTITLE16=Green Green Gras Of Home
TTITLE17=The Night Guard
TTITLE18=Vision At The Peace Table
TTITLE19=You And Me Against The World
EXTD=
EXTT0=
EXTT1=
EXTT2=
EXTT3=
EXTT4=
EXTT5=
EXTT6=
EXTT7=
EXTT8=
EXTT9=
EXTT10=
EXTT11=
EXTT12=
EXTT13=
EXTT14=
EXTT15=
EXTT16=
EXTT17=
EXTT18=
EXTT19=
PLAYORDER=
